#!OML:ASF F:\VICON\USERDATA\INSTALL\Justin_Nancy\Justin_Nancy.ASF
:FULLY-SPECIFIED
:DEGREES
174
root 0.160037 17.2357 21.0402 -3.89382 2.33958 -0.71737
lowerback 9.08748 -0.308057 0.614911
upperback 1.16635 -0.248942 2.3471
thorax -3.87749 -0.11687 2.12091
lowerneck -17.5232 -3.70354 -10.4033
upperneck 19.0917 -3.72619 6.46109
head 9.22113 -1.80334 3.46202
rclavicle -5.64051e-015 3.97569e-015
rhumerus -34.054 -10.2729 -78.0886
rradius 45.781
rwrist 0.670641
rhand -13.6087 14.1777
rfingers 7.12502
rthumb 12.5064 -15.428
lclavicle -5.64051e-015 3.97569e-015
lhumerus -31.7317 5.67964 85.8619
lradius 25.6359
lwrist -9.31308
lhand -17.117 21.787
lfingers 7.12502
lthumb 9.12242 51.5697
rfemur -16.3466 4.94471 25.1354
rtibia 34.3304
rfoot -7.97116 -9.51428
rtoes 2.54965
lfemur -20.9287 0.209328 -20.1065
ltibia 49.2309
lfoot -21.5529 2.39227
ltoes -16.9024
175
root 0.170838 17.2208 21.1275 -3.72226 2.02429 -0.434656
lowerback 8.902 -0.205861 0.424344
upperback 1.10592 -0.135759 2.30873
thorax -3.8401 -0.0581801 2.17334
lowerneck -17.3993 -3.68089 -10.504
upperneck 19.2846 -3.64879 6.2947
head 9.25798 -1.79721 3.43421
rclavicle 1.08586e-014 -1.82882e-014
rhumerus -33.5996 -9.42796 -78.2517
rradius 46.6658
rwrist 1.0301
rhand -13.6022 14.8975
rfingers 7.12502
rthumb 12.5127 -14.7078
lclavicle 1.08586e-014 -1.82882e-014
lhumerus -32.5017 5.62535 86.0551
lradius 25.7136
lwrist -9.18373
lhand -17.1848 21.9011
lfingers 7.12502
lthumb 9.057 51.6866
rfemur -16.459 4.93129 24.8488
rtibia 34.9102
rfoot -8.75366 -9.38378
rtoes 2.3254
lfemur -20.5876 -0.633908 -20.4372
ltibia 46.8105
lfoot -21.8097 2.80987
ltoes -17.1378
176
root 0.178479 17.2062 21.211 -3.61526 1.48613 -0.482063
lowerback 8.80785 -0.0380488 0.512738
upperback 1.01052 0.0983186 2.35902
thorax -3.8948 0.0574286 2.14766
lowerneck -16.7988 -3.58694 -10.4366
upperneck 19.0876 -3.53564 6.02721
head 9.06442 -1.77479 3.34445
rclavicle 1.49089e-015 -8.74653e-015
rhumerus -33.345 -8.67755 -78.3683
rradius 47.7203
rwrist 1.40527
rhand -13.6088 15.6649
rfingers 7.12502
rthumb 12.5063 -13.9409
lclavicle 1.49089e-015 -8.74653e-015
lhumerus -33.3082 5.59891 86.1863
lradius 25.6809
lwrist -8.79145
lhand -17.088 21.4036
lfingers 7.12502
lthumb 9.1504 51.1851
rfemur -16.5438 5.28145 24.9724
rtibia 35.4157
rfoot -9.36588 -9.38723
rtoes 2.00092
lfemur -20.2568 -1.35449 -20.3046
ltibia 44.3837
lfoot -22.0833 2.72713
ltoes -15.8297
177
root 0.18754 17.1874 21.3055 -3.68279 0.953705 -0.533655
lowerback 8.4824 0.0953949 0.593276
upperback 1.18119 0.274898 2.41759
thorax -3.54183 0.142482 2.13997
lowerneck -16.5322 -3.47447 -10.3133
upperneck 18.9085 -3.38716 5.80953
head 8.93508 -1.72077 3.26644
rclavicle 8.77137e-015 -7.95139e-015
rhumerus -32.9349 -7.97227 -78.484
rradius 49.0123
rwrist 1.45547
rhand -13.1139 16.1259
rfingers 7.12502
rthumb 12.9834 -13.4501
lclavicle 8.77137e-015 -7.95139e-015
lhumerus -33.7429 5.50734 86.3595
lradius 25.5325
lwrist -8.2634
lhand -16.8715 20.6709
lfingers 7.12502
lthumb 9.35932 50.4431
rfemur -16.3302 5.61225 25.109
rtibia 35.8342
rfoot -9.97066 -9.40302
rtoes 1.72325
lfemur -19.6705 -2.19506 -20.1422
ltibia 42.0216
lfoot -22.3679 2.39736
ltoes -15.2197
178
root 0.200912 17.1763 21.4079 -3.57891 0.607719 -0.174631
lowerback 7.92251 0.191902 0.338322
upperback 1.25252 0.365281 2.33581
thorax -3.15961 0.188478 2.18736
lowerneck -16.5328 -3.39071 -10.2341
upperneck 19.1796 -3.26149 5.64088
head 9.01328 -1.678 3.21477
rclavicle 2.06239e-015 -4.77083e-015
rhumerus -32.5133 -7.24543 -78.5638
rradius 50.0624
rwrist 1.43239
rhand -12.7331 16.4166
rfingers 7.12502
rthumb 13.3504 -13.1357
lclavicle 2.06239e-015 -4.77083e-015
lhumerus -34.3392 5.61366 86.449
lradius 25.5502
lwrist -7.9101
lhand -16.5141 20.582
lfingers 7.12502
lthumb 9.70419 50.3385
rfemur -16.2249 5.64653 24.713
rtibia 36.2163
rfoot -10.6598 -9.21531
rtoes 1.65597
lfemur -19.2382 -3.18879 -20.4633
ltibia 39.8529
lfoot -21.9517 1.9855
ltoes -15.796
179
root 0.219169 17.1589 21.4929 -3.35129 0.261878 -0.0324878
lowerback 7.58798 0.277172 0.378482
upperback 1.14235 0.477324 2.29761
thorax -3.09035 0.243792 2.11365
lowerneck -16.3109 -3.36318 -10.2191
upperneck 19.5993 -3.22223 5.46243
head 9.11167 -1.68713 3.16214
rclavicle -2.5842e-015 -1.43125e-014
rhumerus -32.0899 -6.64816 -78.5858
rradius 50.9504
rwrist 1.38056
rhand -12.5598 16.6115
rfingers 7.12502
rthumb 13.5175 -12.9297
lclavicle -2.5842e-015 -1.43125e-014
lhumerus -35.1227 5.99248 86.4486
lradius 25.6898
lwrist -7.6666
lhand -16.3285 20.8163
lfingers 7.12502
lthumb 9.88322 50.5643
rfemur -16.3113 5.7007 24.4999
rtibia 36.5067
rfoot -11.248 -8.95414
rtoes 1.74198
lfemur -19.1663 -4.24887 -20.5358
ltibia 38.1042
lfoot -20.4685 1.61958
ltoes -17.3849
180
root 0.231741 17.1407 21.5588 -3.1424 -0.114318 -0.117913
lowerback 7.5396 0.355286 0.519529
upperback 0.96934 0.597826 2.35518
thorax -3.24574 0.303456 2.08188
lowerneck -15.991 -3.28169 -10.2291
upperneck 19.9188 -3.13502 5.39886
head 9.15545 -1.66332 3.15916
rclavicle -4.34841e-015 2.14687e-014
rhumerus -31.792 -6.10718 -78.6091
rradius 52.0767
rwrist 1.04636
rhand -12.9402 16.8194
rfingers 7.12502
rthumb 13.1508 -12.7458
lclavicle -4.34841e-015 2.14687e-014
lhumerus -35.8036 6.53938 86.3705
lradius 25.5844
lwrist -7.45849
lhand -16.4544 20.377
lfingers 7.12502
lthumb 9.76174 50.1307
rfemur -16.4095 5.94567 24.5797
rtibia 36.6614
rfoot -11.6287 -8.85071
rtoes 1.96271
lfemur -19.2774 -4.83501 -20.355
ltibia 36.9401
lfoot -17.3742 0.728309
ltoes -16.8678
181
root 0.236128 17.1386 21.6303 -3.09237 -0.473746 -0.427106
lowerback 7.36874 0.424912 0.773366
upperback 1.0062 0.711973 2.51874
thorax -3.11504 0.35762 2.09747
lowerneck -15.8833 -3.21998 -10.3035
upperneck 20.0284 -3.04117 5.38545
head 9.16683 -1.62977 3.1811
rclavicle -8.94531e-016 1.59028e-014
rhumerus -31.234 -5.68327 -78.6187
rradius 53.0972
rwrist 0.585958
rhand -13.47 17.2759
rfingers 7.12502
rthumb 12.6401 -12.3216
lclavicle -8.94531e-016 1.59028e-014
lhumerus -36.2058 7.07511 86.3782
lradius 25.4658
lwrist -7.30023
lhand -16.314 20.2547
lfingers 7.12502
lthumb 9.89724 50.0021
rfemur -16.1851 6.14503 24.9524
rtibia 36.6564
rfoot -11.9121 -8.80189
rtoes 1.91509
lfemur -19.1639 -4.62432 -20.034
ltibia 36.4702
lfoot -13.4099 -0.361732
ltoes -4.75433
182
root 0.244456 17.1526 21.7093 -3.12811 -0.681685 -0.54661
lowerback 6.99895 0.477009 0.901422
upperback 1.21293 0.779727 2.624
thorax -2.69686 0.389316 2.12973
lowerneck -15.9497 -3.23681 -10.4375
upperneck 20.0633 -3.03235 5.42622
head 9.19368 -1.63118 3.21893
rclavicle 1.80149e-014 4.05521e-014
rhumerus -30.4047 -5.60325 -78.5173
rradius 53.8642
rwrist 0.46067
rhand -13.2876 17.1564
rfingers 7.12502
rthumb 12.8159 -12.4302
lclavicle 1.80149e-014 4.05521e-014
lhumerus -36.4846 7.22391 86.642
lradius 25.6268
lwrist -6.85261
lhand -16.1506 21.2596
lfingers 7.12502
lthumb 10.0548 50.9994
rfemur -15.7547 5.88092 25.0626
rtibia 36.5417
rfoot -12.1843 -8.41203
rtoes 1.96684
lfemur -18.8198 -3.62124 -20.0666
ltibia 36.6035
lfoot -10.3517 -0.765649
ltoes 7.45033
183
root 0.253333 17.1618 21.7733 -3.09599 -0.71916 -0.379927
lowerback 6.7837 0.468634 0.690874
upperback 1.2487 0.748757 2.68424
thorax -2.54236 0.37552 2.31465
lowerneck -15.9484 -3.2024 -10.4658
upperneck 20.3346 -2.93639 5.22427
head 9.27796 -1.61515 3.16926
rclavicle 1.06101e-014 -7.95139e-016
rhumerus -29.7101 -5.63504 -78.3262
rradius 54.4609
rwrist 0.631582
rhand -12.9969 17.0603
rfingers 7.12502
rthumb 13.0961 -12.5085
lclavicle 1.06101e-014 -7.95139e-016
lhumerus -36.9134 7.43244 86.8824
lradius 25.6266
lwrist -6.42999
lhand -16.0025 21.9594
lfingers 7.12502
lthumb 10.1978 51.6923
rfemur -15.4514 5.69078 24.8391
rtibia 36.4072
rfoot -12.3619 -8.20056
rtoes 1.5948
lfemur -18.5458 -3.01546 -20.4051
ltibia 37.0443
lfoot -12.9233 -0.834931
ltoes -0.171903
184
root 0.253862 17.1575 21.8113 -3.08333 -0.751023 -0.73608
lowerback 7.00437 0.413458 0.887409
upperback 1.11777 0.7054 2.89951
thorax -2.7997 0.353989 2.43013
lowerneck -15.7464 -3.12631 -10.5002
upperneck 20.6464 -2.8067 5.03527
head 9.33701 -1.58617 3.13096
rclavicle 1.2424e-016 -1.59028e-015
rhumerus -29.3146 -5.64774 -78.1699
rradius 55.2167
rwrist 0.558803
rhand -13.0281 17.3658
rfingers 7.12502
rthumb 13.0661 -12.205
lclavicle 1.2424e-016 -1.59028e-015
lhumerus -37.338 8.02129 86.8458
lradius 25.1969
lwrist -6.44332
lhand -15.9332 21.6796
lfingers 7.12502
lthumb 10.2646 51.4091
rfemur -15.2868 5.89934 25.2704
rtibia 36.3671
rfoot -12.5298 -8.38516
rtoes 1.28995
lfemur -18.4094 -2.92192 -20.0555
ltibia 37.4603
lfoot -14.5922 -0.701909
ltoes -3.30125
185
root 0.253308 17.1543 21.8544 -3.21996 -0.794765 -1.05318
lowerback 7.19439 0.395567 1.0688
upperback 1.07073 0.707057 3.05181
thorax -2.95438 0.354035 2.48531
lowerneck -15.2672 -3.10345 -10.4085
upperneck 20.7291 -2.81671 4.87196
head 9.27484 -1.60858 3.06055
rclavicle 1.78906e-015 -7.15625e-015
rhumerus -29.0471 -5.85118 -78.0494
rradius 56.1265
rwrist 0.338611
rhand -12.8294 17.158
rfingers 7.12502
rthumb 13.2577 -12.4003
lclavicle 1.78906e-015 -7.15625e-015
lhumerus -37.6609 8.58833 86.7072
lradius 24.6911
lwrist -6.52299
lhand -16.0861 20.9798
lfingers 7.12502
lthumb 10.1171 50.7166
rfemur -14.9976 6.10503 25.677
rtibia 36.424
rfoot -12.7295 -8.59639
rtoes 1.01286
lfemur -18.0751 -3.13911 -19.7194
ltibia 37.6425
lfoot -14.5941 -0.169339
ltoes -1.3929
